<svg xmlns="http://www.w3.org/2000/svg" viewBox="0 0 128 128" width="64px" height="64px"><path fill="#EDECF2" d="M100.7 76.3A18.3 18.3 0 1 0 100.7 112.89999999999999A18.3 18.3 0 1 0 100.7 76.3Z"/><path fill="#EDE57A" d="M27.3 76.3A18.3 18.3 0 1 0 27.3 112.89999999999999A18.3 18.3 0 1 0 27.3 76.3Z"/><path fill="#F8F4B2" d="M64 15.099999999999998A18.3 18.3 0 1 0 64 51.7A18.3 18.3 0 1 0 64 15.099999999999998Z"/><path fill="#464C55" d="M27.3 115.9C15.6 115.9 6 106.3 6 94.6s9.6-21.3 21.3-21.3 21.3 9.6 21.3 21.3S39.1 115.9 27.3 115.9zM27.3 79.2c-8.5 0-15.3 6.9-15.3 15.3 0 8.5 6.9 15.3 15.3 15.3 8.5 0 15.3-6.9 15.3-15.3C42.7 86.1 35.8 79.2 27.3 79.2zM100.7 115.9c-11.8 0-21.3-9.6-21.3-21.3s9.6-21.3 21.3-21.3S122 82.8 122 94.6 112.4 115.9 100.7 115.9zM100.7 79.2c-8.5 0-15.3 6.9-15.3 15.3 0 8.5 6.9 15.3 15.3 15.3 8.5 0 15.3-6.9 15.3-15.3S109.1 79.2 100.7 79.2zM64 54.8c-11.8 0-21.3-9.6-21.3-21.3S52.2 12.1 64 12.1s21.3 9.6 21.3 21.3S75.8 54.8 64 54.8zM64 18.1c-8.5 0-15.3 6.9-15.3 15.3 0 8.5 6.9 15.3 15.3 15.3s15.3-6.9 15.3-15.3S72.5 18.1 64 18.1z"/><g><path fill="#464C55" d="M91.2,81.8c-1,0-2-0.5-2.6-1.5L77.1,61.2c-0.9-1.4-0.4-3.3,1-4.1c1.4-0.9,3.3-0.4,4.1,1l11.5,19.2c0.9,1.4,0.4,3.3-1,4.1C92.3,81.7,91.8,81.8,91.2,81.8z"/></g><g><path fill="#464C55" d="M43.4,71.6c-0.5,0-1.1-0.1-1.6-0.4c-1.4-0.9-1.8-2.7-1-4.1L52.6,48c0.9-1.4,2.7-1.9,4.1-1c1.4,0.9,1.8,2.7,1,4.1l-11.8,19C45.3,71,44.4,71.6,43.4,71.6z"/></g></svg>