<svg xmlns="http://www.w3.org/2000/svg" width="270" height="270" version="1.0"><path d="M126.056 269.588c-7.575-.754-12.423-1.447-17.937-2.564-40.717-8.25-75.618-35.232-93.966-72.648-4.758-9.701-7.378-16.762-9.79-26.382-5.498-21.934-5.498-44.175 0-66.11 5.367-21.408 16.39-41.74 31.547-58.189 21.48-23.31 49.244-37.78 81.556-42.51 9.195-1.345 26.94-1.217 36.634.266 24.668 3.772 46.29 13.22 65.688 28.705 5.556 4.435 15.54 14.404 19.905 19.874 8.672 10.869 17.253 25.886 21.765 38.088 11.035 29.84 11.035 63.802 0 93.643-4.512 12.202-13.093 27.219-21.765 38.088-4.365 5.47-14.349 15.439-19.905 19.874-19.347 15.443-41.303 25.05-65.435 28.634-6.748 1.002-23.347 1.724-28.297 1.231h0z" stroke="#000" stroke-width=".505" stroke-opacity=".631"/><path d="M28.992 173.515c5.95-3.125 17.077 1.965 22.115 10.12 4.518 7.31 27.407 14.114 35.517 10.558 5.412-2.372 6.778-5.378 7.202-15.845.798-19.684-3.636-35.097-17.991-62.536-7.204-13.77-14.753-28.998-16.774-33.834C57.039 77.14 51.588 68.6 46.947 63c-9.875-11.91-10.182-15.165-2.077-22.074C57.006 30.58 77.507 47.327 73.082 63.97c-2.178 8.191 2.003 20.14 15.85 45.295 16.43 29.85 33.084 41.94 43.03 31.243 2.569-2.763 5.758-18.178 8.697-42.04 4.422-35.89 4.4-38.037-.47-45.253-8.418-12.475-.48-25.42 12.84-20.943 13.43 4.513 22.192 22.779 13.776 28.715-3.735 2.633-4.942 10.29-6.637 42.096-2.172 40.785-.529 51.701 8.61 57.188 8.121 4.876 10.946 3.885 28.067-9.89 18.167-14.611 25.635-24.068 26.115-33.067.446-8.369 5.992-12.846 14.832-11.971 5.634.559 8.15 2.41 11.3 8.312 6.431 12.052 4.589 19.71-5.213 21.666-7.987 1.593-21.707 19.271-42.815 55.16-22.287 37.898-27.173 41.845-52.15 42.148-10.27.123-24.635-3.295-58.455-13.914-24.662-7.746-48.042-14.468-51.956-14.943-14.142-1.708-21.188-24.12-9.51-30.257z" fill="#ededed"/></svg>